<?xml version="1.0" encoding="utf-8"?>
<!-- Generator: Adobe Illustrator 16.0.0, SVG Export Plug-In . SVG Version: 6.00 Build 0)  -->
<!DOCTYPE svg PUBLIC "-//W3C//DTD SVG 1.1//EN" "http://www.w3.org/Graphics/SVG/1.1/DTD/svg11.dtd">
<svg version="1.1" id="Layer_1" xmlns="http://www.w3.org/2000/svg" xmlns:xlink="http://www.w3.org/1999/xlink" x="0px" y="0px"
	 width="90px" height="90px" viewBox="0 0 90 90" enable-background="new 0 0 90 90" xml:space="preserve">
<linearGradient id="SVGID_1_" gradientUnits="userSpaceOnUse" x1="4" y1="45" x2="86" y2="45">
	<stop  offset="0" style="stop-color:#FD746C"/>
	<stop  offset="1" style="stop-color:#FF9068"/>
</linearGradient>
<path fill="url(#SVGID_1_)" d="M74.949,4H15.051C8.948,4,4,8.948,4,15.051v59.898C4,81.053,8.948,86,15.051,86h29.541l0.051-29.304
	h-7.612c-0.99,0-1.794-0.799-1.796-1.788l-0.037-9.445C35.193,44.469,36,43.66,36.994,43.66h7.598v-9.127
	c0-10.59,6.47-16.357,15.917-16.357h7.752c0.994,0,1.795,0.804,1.795,1.796v7.964c0,0.993-0.802,1.797-1.793,1.797l-4.758,0.002
	c-5.138,0-6.132,2.441-6.132,6.024v7.901h11.291c1.074,0,1.911,0.938,1.782,2.009l-1.118,9.445c-0.11,0.902-0.875,1.582-1.787,1.582
	H57.423L57.373,86h17.577C81.052,86,86,81.053,86,74.949V15.051C86,8.948,81.052,4,74.949,4z"/>
</svg>
