<?xml version="1.0" encoding="utf-8"?>
<!-- Generator: Adobe Illustrator 21.1.0, SVG Export Plug-In . SVG Version: 6.00 Build 0)  -->
<svg version="1.1" id="Layer_1" xmlns="http://www.w3.org/2000/svg" xmlns:xlink="http://www.w3.org/1999/xlink" x="0px" y="0px"
	 viewBox="0 0 132 73" style="enable-background:new 0 0 132 73;" xml:space="preserve">
<style type="text/css">
	.st0{fill:#FFFFFF;}
</style>
<g>
	<path class="st0" d="M44.1,64c-0.1,0-0.2-0.1-0.3-0.1c-1.6-0.4-2.7-1.6-3-3.2c-0.1-0.7-0.1-1.5,0.1-2.2c0.5-1.8,2.1-3,4-2.9
		c2.2,0.1,3.6,1.7,3.8,3.7c0.1,0.8,0,1.5-0.3,2.2c-0.5,1.3-1.5,2.1-2.8,2.3c-0.1,0-0.1,0-0.2,0.1C45,64,44.5,64,44.1,64z M47.7,59.8
		c0-0.1,0-0.3,0-0.5c0-0.2-0.1-0.3-0.1-0.5c-0.4-1.3-1.4-2.2-2.8-2.2c-1.4,0-2.5,0.8-2.9,2.1c-0.2,0.7-0.2,1.3-0.1,2
		c0.3,1.3,1.2,2.4,2.7,2.5c1.1,0.1,2-0.3,2.7-1.3C47.6,61.2,47.7,60.5,47.7,59.8z"/>
	<path class="st0" d="M109.2,63.9c-0.3,0-0.6,0-0.9,0c-0.2,0-0.3-0.1-0.4-0.2c-0.6-0.9-1.2-1.8-1.7-2.7c-0.1-0.2-0.2-0.3-0.5-0.3
		c-0.4,0-0.8,0-1.3,0c0,0.4,0,0.7,0,1.1c0,0.3,0,0.7,0,1c0,0.4,0,0.7,0,1.1c-0.3,0-0.6,0-1,0c-0.1-0.2-0.1-7.7,0-8.1
		c0.1,0,0.1,0,0.2,0c1,0,2,0,3,0c0.4,0,0.7,0.1,1,0.2c1.1,0.4,1.6,1.5,1.5,2.6c-0.1,1.1-0.8,1.8-1.9,2c-0.1,0-0.1,0-0.2,0.1
		C107.8,61.7,108.5,62.8,109.2,63.9C109.2,63.9,109.2,63.9,109.2,63.9z M104.4,56.7c0,1,0,2,0,3c0.1,0,0.1,0,0.2,0c0.7,0,1.3,0,2,0
		c0.1,0,0.3,0,0.4-0.1c0.7-0.2,1.1-0.7,1.1-1.4c0-0.7-0.3-1.3-1-1.5c-0.2-0.1-0.4-0.1-0.6-0.1c-0.6,0-1.3,0-1.9,0
		C104.5,56.7,104.5,56.7,104.4,56.7z"/>
	<path class="st0" d="M23.4,52.4c0-14.5,0-28.9,0-43.4c28.1,0,56.3,0,84.4,0c0,14.5,0,28.9,0,43.4c0,0,0,0,0,0c0,0,0,0,0,0
		c-0.1,0-0.1,0-0.2,0C79.5,52.4,51.5,52.4,23.4,52.4C23.4,52.4,23.4,52.4,23.4,52.4z M105.9,10.9C105.9,10.9,105.8,10.9,105.9,10.9
		c-26.8,0-53.6,0-80.3,0c-0.1,0-0.2,0-0.2,0c0,0,0,0,0,0c0,0,0,0,0,0c0,13.2,0,26.3,0,39.5c26.9,0,53.7,0,80.6,0
		C105.9,37.3,105.9,24.1,105.9,10.9z"/>
	<path class="st0" d="M85.6,55.8c0.5,0,0.9,0,1.4,0c0.8,2,1.7,4,2.5,6.1c0.9-2.1,1.7-4.1,2.5-6.1c0.5,0,0.9,0,1.4,0
		c0,2.7,0,5.4,0,8.1c-0.3,0-0.6,0-0.9,0c0,0,0,0,0,0c0,0,0,0,0,0c0,0,0-0.1,0-0.1c0-2.1,0-4.2,0-6.3c0,0,0,0,0,0c0,0,0,0,0,0
		c-0.9,2.2-1.8,4.3-2.7,6.5c-0.1,0-0.3,0-0.4,0c-0.9-2.2-1.8-4.3-2.7-6.5c0,0,0,0-0.1,0c0,0.3,0,0.7,0,1c0,0.4,0,0.7,0,1.1
		c0,0.4,0,0.7,0,1.1c0,0.4,0,0.7,0,1.1c0,0.4,0,0.7,0,1.1c0,0.4,0,0.7,0,1.1c-0.3,0-0.7,0-1,0C85.6,61.2,85.6,58.5,85.6,55.8z"/>
	<path class="st0" d="M32.2,57.4c0,2.1,0,4.3,0,6.5c-0.3,0-0.6,0-1,0c-0.1-0.2-0.1-7.4,0-8.1c0.2,0,0.5,0,0.7,0c0.2,0,0.5,0,0.7,0
		c0.8,2,1.7,4,2.5,6c0,0,0,0,0.1,0c0.8-2,1.7-4,2.5-6c0.5,0,0.9,0,1.4,0c0.1,0.2,0.1,7.7,0,8.1c-0.3,0-0.6,0-1,0c0-0.7,0-1.4,0-2.1
		c0-0.7,0-1.4,0-2.2c0-0.7,0-1.4,0-2.1c0,0,0,0-0.1,0c-0.2,0.3-0.3,0.7-0.4,1.1c-0.2,0.4-0.3,0.7-0.4,1.1c-0.2,0.4-0.3,0.7-0.5,1.1
		c-0.1,0.4-0.3,0.7-0.4,1.1c-0.2,0.4-0.3,0.7-0.5,1.1c-0.1,0.4-0.3,0.7-0.4,1.1c-0.1,0-0.3,0-0.4,0C34.1,61.7,33.2,59.5,32.2,57.4
		C32.3,57.4,32.3,57.4,32.2,57.4z"/>
	<path class="st0" d="M60.9,55.8c1.1,0,2.2-0.1,3.3,0c1.1,0.1,2,0.5,2.7,1.4c0.7,0.9,1,1.9,0.9,3.1c-0.1,1.1-0.6,2.1-1.5,2.8
		c-0.7,0.6-1.6,0.8-2.5,0.8c-0.9,0-1.8,0-2.7,0c0,0-0.1,0-0.2,0C60.9,61.2,60.9,58.5,60.9,55.8z M61.9,56.7c0,2.1,0,4.2,0,6.2
		c0.8,0,1.5,0.1,2.2,0c1.3-0.1,2.1-0.9,2.5-2.1c0.2-0.5,0.2-1,0.1-1.5c-0.2-1.6-1.2-2.6-2.8-2.7C63.3,56.7,62.6,56.7,61.9,56.7
		C61.9,56.7,61.9,56.7,61.9,56.7z"/>
	<path class="st0" d="M50.4,55.8c0.1,0,0.2,0,0.3,0c1,0,2,0,3,0c0.4,0,0.8,0.1,1.1,0.2c1.1,0.5,1.5,1.5,1.4,2.5
		c-0.1,1.1-0.8,1.8-1.9,2c0,0-0.1,0-0.2,0c0.7,1.1,1.4,2.2,2.2,3.3c-0.4,0-0.8,0-1.1,0c-0.1,0-0.2-0.1-0.2-0.2c-0.3-0.5-0.6-1-1-1.5
		c-0.3-0.5-0.6-0.9-0.9-1.4c-0.1-0.1-0.2-0.2-0.3-0.2c-0.5,0-0.9,0-1.4,0c0,1.1,0,2.1,0,3.2c-0.3,0-0.6,0-1,0
		C50.4,61.2,50.4,58.5,50.4,55.8z M51.4,59.8c0.1,0,0.1,0,0.2,0c0.6,0,1.3,0,1.9,0c0.1,0,0.3,0,0.4,0c0.7-0.2,1.2-0.7,1.2-1.5
		c0-0.8-0.5-1.4-1.2-1.5c-0.2,0-0.3,0-0.5,0c-0.6,0-1.2,0-1.9,0c-0.1,0-0.1,0-0.2,0C51.4,57.7,51.4,58.7,51.4,59.8z"/>
	<path class="st0" d="M97.8,55.8c0.1,0,0.2,0,0.2,0c0.3,0,0.7,0,1,0c0.2,0.3,3.2,7.9,3.2,8.1c-0.3,0-0.7,0-1,0
		c-0.1,0-0.2-0.1-0.2-0.2c-0.2-0.4-0.4-0.9-0.5-1.3c0-0.1-0.1-0.2-0.1-0.3c-1.3,0-2.7,0-4,0c-0.1,0.1-0.1,0.3-0.2,0.4
		c-0.2,0.4-0.3,0.8-0.5,1.2c0,0.1-0.1,0.2-0.2,0.2c-0.3,0-0.6,0-1,0C94.6,63.6,97.3,57,97.8,55.8z M100.1,61.2
		c-0.6-1.4-1.1-2.9-1.7-4.3c-0.6,1.5-1.1,2.9-1.7,4.3C97.9,61.2,99,61.2,100.1,61.2z"/>
	<path class="st0" d="M25.7,55.8c0.4,0,0.8,0,1.3,0c1.1,2.7,2.2,5.4,3.3,8.1c-0.4,0-0.8,0-1.2,0c-0.2-0.6-0.5-1.2-0.7-1.8
		c-1.3,0-2.7,0-4,0c-0.2,0.6-0.5,1.2-0.7,1.8c-0.4,0-0.7,0-1.1,0C22.5,63.6,25.2,56.9,25.7,55.8z M24.6,61.2c1.1,0,2.3,0,3.4,0
		c-0.6-1.4-1.1-2.9-1.7-4.3C25.7,58.3,25.2,59.7,24.6,61.2z"/>
	<path class="st0" d="M70.4,56.7c0,0.9,0,1.7,0,2.6c0.7,0,1.4,0,2.1,0c0.7,0,1.4,0,2.1,0c0,0.3,0,0.6,0,0.9c-1.4,0-2.8,0-4.1,0
		c-0.1,0.2-0.1,2.4,0,2.8c1.4,0,2.8,0,4.3,0c0,0.3,0,0.6,0,0.9c-1.8,0-3.5,0-5.3,0c0-2.7,0-5.4,0-8.1c1.8,0,3.5,0,5.3,0
		c0,0.3,0,0.6,0,0.9c-0.7,0-1.4,0-2.1,0C71.8,56.7,71.1,56.7,70.4,56.7z"/>
	<path class="st0" d="M81,63c0,0.1,0,0.2,0,0.2c0,0.2,0,0.4,0,0.6c-0.2,0.1-4.5,0.1-4.8,0c0-2.7,0-5.4,0-8c0.3,0,0.6,0,1,0
		c0,0.3,0,0.7,0,1c0,0.3,0,0.7,0,1c0,0.3,0,0.7,0,1s0,0.7,0,1s0,0.7,0,1c0,0.3,0,0.7,0,1c0,0.3,0,0.7,0,1C78.5,63,79.8,63,81,63z"/>
	<path class="st0" d="M94.7,31c0-4.6,0-9.1,0-13.7c0-0.2,0-0.4,0.2-0.6c0.6-0.9,1.2-1.7,1.8-2.6c0.1-0.2,0.2-0.2,0.4-0.2
		c1.4,0,2.7,0,4.1,0c0.2,0,0.3,0,0.4,0.2c0.6,0.9,1.2,1.8,1.8,2.7c0.1,0.2,0.1,0.3,0.1,0.5c0,9.2,0,18.3,0,27.5c0,0.2,0,0.3-0.2,0.5
		c-0.6,0.8-1.2,1.6-1.8,2.5c-0.1,0.1-0.2,0.2-0.4,0.2c-1.4,0-2.8,0-4.1,0c-0.2,0-0.3,0-0.4-0.2c-0.6-0.8-1.2-1.7-1.8-2.5
		c-0.1-0.1-0.1-0.3-0.1-0.5c0-3.6,0-7.3,0-10.9C94.7,32.9,94.7,32,94.7,31z M100.8,45c0-9.4,0-18.8,0-28.2c-0.3-0.1-3.1-0.1-3.3,0
		c0,9.4,0,18.8,0,28.2C98.5,45,99.6,45,100.8,45z"/>
	<path class="st0" d="M37,31c0,4.6,0,9.1,0,13.7c0,0.2,0,0.4-0.2,0.6c-0.6,0.8-1.2,1.6-1.8,2.4c-0.1,0.1-0.2,0.2-0.4,0.2
		c-1.4,0-2.8,0-4.1,0c-0.2,0-0.3-0.1-0.4-0.2c-0.6-0.8-1.2-1.6-1.8-2.5c-0.1-0.2-0.2-0.3-0.2-0.5c0-2.6,0-5.3,0-7.9
		c0-6.5,0-13,0-19.5c0-0.2,0-0.4,0.2-0.6c0.6-0.9,1.2-1.8,1.8-2.6c0.1-0.2,0.2-0.2,0.4-0.2c1.4,0,2.7,0,4.1,0c0.2,0,0.3,0.1,0.4,0.2
		c0.6,0.9,1.2,1.8,1.8,2.6c0.1,0.2,0.2,0.4,0.2,0.6C37,21.9,37,26.5,37,31z M30.9,16.8c0,9.4,0,18.8,0,28.3c1.1,0,2.2,0,3.3,0
		c0-9.4,0-18.8,0-28.3C33.1,16.8,32,16.8,30.9,16.8z"/>
	<path class="st0" d="M76.7,13.8c0.9,0,1.8,0,2.6,0c0,0,0,0,0,0c0,0,0,0,0,0c0,0,0,0.1,0,0.1c1.1,11.3,2.2,22.6,3.4,33.9
		c-0.2,0.1-2.3,0.1-2.6,0c-0.3-3.1-0.6-6.2-0.9-9.3c-0.8,0-1.6,0-2.4,0c-0.3,3.1-0.6,6.2-0.9,9.3c-0.9,0-1.8,0-2.6,0
		C74.4,36.5,75.6,25.1,76.7,13.8z M77.8,28.2c-0.2,2.6-0.4,5.1-0.6,7.6c0.3,0.1,1.6,0.1,1.8,0c-0.2-2.5-0.4-5.1-0.6-7.6
		C78.1,28.2,78,28.2,77.8,28.2z"/>
	<path class="st0" d="M51.9,13.8c0.9,0,1.8,0,2.7,0c1.1,11.4,2.3,22.7,3.4,34.1c-0.9,0-1.8,0-2.6,0c-0.3-3.1-0.6-6.2-0.9-9.3
		c-0.8,0-1.6,0-2.4,0c-0.3,3.1-0.6,6.2-0.9,9.3c-0.9,0-1.7,0-2.6,0C49.6,36.5,50.7,25.1,51.9,13.8z M54.1,35.9
		c-0.2-2.6-0.4-5.1-0.6-7.7c-0.2,0-0.4,0-0.6,0c-0.2,2.6-0.4,5.1-0.6,7.7C52.9,35.9,53.5,35.9,54.1,35.9z"/>
	<path class="st0" d="M67.7,13.9c0.9,0,1.7,0,2.6,0c-1.1,11.3-2.3,22.7-3.4,34c-0.9,0-1.8,0-2.7,0c-1.1-11.3-2.3-22.6-3.4-34
		c0.9,0,1.8,0,2.6,0c0.6,6.6,1.2,13.1,1.8,19.7c0.2,0,0.4,0,0.6,0C66.5,27,67.1,20.4,67.7,13.9z"/>
	<path class="st0" d="M39.6,13.8c0.9,0,1.8,0,2.7,0c0,10.4,0,20.8,0,31.3c0.7,0,1.5,0,2.2,0c0.7,0,1.4,0,2.1,0
		c0.1,0.2,0.1,2.4,0,2.8c-2.3,0-4.7,0-7,0C39.6,36.5,39.6,25.2,39.6,13.8z"/>
	<path class="st0" d="M87.8,45.1c1.5,0,2.9,0,4.3,0c0,0.9,0,1.8,0,2.8c-0.8,0-1.5,0-2.3,0c-0.8,0-1.6,0-2.3,0c-0.8,0-1.6,0-2.4,0
		c0-11.4,0-22.7,0-34.1c0.9,0,1.8,0,2.7,0c0,0.8,0,1.6,0,2.4c0,0.8,0,1.6,0,2.4c0,0.8,0,1.6,0,2.4c0,0.8,0,1.6,0,2.4
		c0,0.8,0,1.6,0,2.4c0,0.8,0,1.6,0,2.4s0,1.6,0,2.4s0,1.6,0,2.4c0,0.8,0,1.6,0,2.4c0,0.8,0,1.6,0,2.4c0,0.8,0,1.6,0,2.4
		c0,0.8,0,1.6,0,2.4C87.8,43.5,87.8,44.3,87.8,45.1z"/>
</g>
</svg>
