<?xml version="1.0" encoding="utf-8"?>
<!-- Generator: Adobe Illustrator 16.0.0, SVG Export Plug-In . SVG Version: 6.00 Build 0)  -->
<!DOCTYPE svg PUBLIC "-//W3C//DTD SVG 1.1//EN" "http://www.w3.org/Graphics/SVG/1.1/DTD/svg11.dtd">
<svg version="1.1" id="Layer_1" xmlns="http://www.w3.org/2000/svg" xmlns:xlink="http://www.w3.org/1999/xlink" x="0px" y="0px"
	 width="132px" height="72.958px" viewBox="0 0 132 72.958" enable-background="new 0 0 132 72.958" xml:space="preserve">
<g>
	<rect x="23" y="7.958" fill="#FFFFFF" width="85" height="45"/>
	<path fill="#FFFFFF" d="M109,52.958H23v-46h86V52.958z M24,51.958h84v-44H24V51.958z"/>
</g>
<g>
	<g>
		<path fill="#FFFFFF" d="M30.8,36.108V22.502c0-1.145,0.051-2.195,0.153-3.152c0.103-0.956,0.275-1.859,0.52-2.708
			c0.243-0.849,0.551-1.566,0.923-2.151s0.848-1.047,1.425-1.387c0.578-0.339,1.239-0.509,1.984-0.509
			c0.744,0,1.405,0.17,1.983,0.509c0.577,0.34,1.053,0.802,1.425,1.387s0.68,1.302,0.924,2.151c0.242,0.849,0.416,1.752,0.519,2.708
			c0.103,0.957,0.153,2.007,0.153,3.152v13.606c0,6.618-1.668,9.927-5.004,9.927C32.468,46.035,30.8,42.726,30.8,36.108z
			 M39.076,36.75V21.86c0-4.643-1.091-6.964-3.271-6.964c-2.182,0-3.272,2.321-3.272,6.964v14.89c0,4.655,1.091,6.982,3.272,6.982
			C37.985,43.732,39.076,41.405,39.076,36.75z"/>
		<path fill="#FFFFFF" d="M43.772,45.525V13.047h1.733v30.176h5.483v2.302H43.772z"/>
		<path fill="#FFFFFF" d="M53.189,45.525h-1.744l3.876-32.478h2.257l3.876,32.478h-1.756l-0.98-8.455h-4.525L53.189,45.525z
			 M54.397,35.165h4.104l-2.063-19.136L54.397,35.165z"/>
		<path fill="#FFFFFF" d="M65.843,45.525l-4.218-32.478h1.87l3.477,29.081l3.329-29.081h1.869l-4.059,32.478H65.843z"/>
		<path fill="#FFFFFF" d="M73.994,45.525H72.25l3.876-32.478h2.257l3.876,32.478h-1.756l-0.98-8.455h-4.525L73.994,45.525z
			 M75.202,35.165h4.104l-2.063-19.136L75.202,35.165z"/>
		<path fill="#FFFFFF" d="M84.459,45.525V13.047h1.733v30.176h5.483v2.302H84.459z"/>
		<path fill="#FFFFFF" d="M92.896,36.108V22.502c0-1.145,0.051-2.195,0.153-3.152c0.103-0.956,0.275-1.859,0.52-2.708
			c0.243-0.849,0.551-1.566,0.923-2.151s0.848-1.047,1.425-1.387c0.578-0.339,1.239-0.509,1.984-0.509
			c0.744,0,1.405,0.17,1.983,0.509c0.577,0.34,1.053,0.802,1.425,1.387s0.68,1.302,0.924,2.151c0.242,0.849,0.416,1.752,0.519,2.708
			c0.103,0.957,0.153,2.007,0.153,3.152v13.606c0,6.618-1.668,9.927-5.004,9.927C94.563,46.035,92.896,42.726,92.896,36.108z
			 M101.172,36.75V21.86c0-4.643-1.091-6.964-3.271-6.964c-2.182,0-3.272,2.321-3.272,6.964v14.89c0,4.655,1.091,6.982,3.272,6.982
			C100.081,43.732,101.172,41.405,101.172,36.75z"/>
	</g>
</g>
<g>
	<path fill="#FFFFFF" d="M29.375,64.958l-0.802-1.992h-4.288l-0.802,1.992h-0.801l3.315-8.102h0.862l3.315,8.102H29.375z
		 M26.423,57.597l-1.906,4.737h3.825L26.423,57.597z"/>
	<path fill="#FFFFFF" d="M38.246,64.958v-7.154l-2.951,7.154h-0.268l-2.964-7.154v7.154h-0.692v-8.102h1.033l2.757,6.681
		l2.745-6.681h1.044v8.102H38.246z"/>
	<path fill="#FFFFFF" d="M40.668,60.913c0-2.369,1.555-4.19,3.936-4.19c2.368,0,3.936,1.822,3.936,4.19
		c0,2.368-1.567,4.19-3.936,4.19C42.223,65.104,40.668,63.281,40.668,60.913z M47.811,60.913c0-2.065-1.264-3.559-3.207-3.559
		c-1.968,0-3.206,1.494-3.206,3.559c0,2.041,1.238,3.559,3.206,3.559C46.547,64.472,47.811,62.954,47.811,60.913z"/>
	<path fill="#FFFFFF" d="M55.006,64.958l-2.271-3.352h-1.786v3.352h-0.692v-8.102h3.024c1.397,0,2.466,0.887,2.466,2.369
		c0,1.47-1.045,2.283-2.247,2.332l2.345,3.401H55.006z M55.019,59.225c0-1.021-0.729-1.737-1.798-1.737h-2.271v3.486h2.271
		C54.29,60.974,55.019,60.245,55.019,59.225z"/>
	<path fill="#FFFFFF" d="M60.624,64.958v-8.102h2.587c2.515,0,4.094,1.834,4.094,4.057c0,2.247-1.579,4.044-4.094,4.044H60.624z
		 M66.576,60.913c0-1.895-1.215-3.425-3.365-3.425h-1.895v6.838h1.895C65.35,64.326,66.576,62.808,66.576,60.913z"/>
	<path fill="#FFFFFF" d="M69.034,64.958v-8.102h5.138v0.632h-4.445v3h4.36v0.631h-4.36v3.207h4.445v0.631H69.034z"/>
	<path fill="#FFFFFF" d="M75.889,64.958v-8.102h0.692v7.47h3.924v0.631H75.889z"/>
	<path fill="#FFFFFF" d="M92.036,64.958v-7.154l-2.951,7.154h-0.268l-2.964-7.154v7.154h-0.692v-8.102h1.032l2.758,6.681
		l2.745-6.681h1.044v8.102H92.036z"/>
	<path fill="#FFFFFF" d="M100.63,64.958l-0.802-1.992H95.54l-0.802,1.992h-0.801l3.315-8.102h0.862l3.316,8.102H100.63z
		 M97.678,57.597l-1.906,4.737h3.825L97.678,57.597z"/>
	<path fill="#FFFFFF" d="M107.374,64.958l-2.271-3.352h-1.786v3.352h-0.692v-8.102h3.024c1.397,0,2.466,0.887,2.466,2.369
		c0,1.47-1.045,2.283-2.247,2.332l2.345,3.401H107.374z M107.387,59.225c0-1.021-0.729-1.737-1.798-1.737h-2.271v3.486h2.271
		C106.658,60.974,107.387,60.245,107.387,59.225z"/>
</g>
</svg>
