<?xml version="1.0" encoding="utf-8"?>
<!-- Generator: Adobe Illustrator 16.0.0, SVG Export Plug-In . SVG Version: 6.00 Build 0)  -->
<!DOCTYPE svg PUBLIC "-//W3C//DTD SVG 1.1//EN" "http://www.w3.org/Graphics/SVG/1.1/DTD/svg11.dtd">
<svg version="1.1" id="Layer_1" xmlns="http://www.w3.org/2000/svg" xmlns:xlink="http://www.w3.org/1999/xlink" x="0px" y="0px"
	 width="132px" height="72.958px" viewBox="0 0 132 72.958" enable-background="new 0 0 132 72.958" xml:space="preserve">
<g>
	<path d="M109,52H23V6h86V52z M24,51h84V7H24V51z"/>
</g>
<g>
	<g>
		<path d="M30.8,35.151V21.544c0-1.145,0.051-2.195,0.153-3.152c0.103-0.956,0.275-1.859,0.52-2.708
			c0.243-0.849,0.551-1.566,0.923-2.151s0.848-1.047,1.425-1.387c0.578-0.339,1.239-0.509,1.984-0.509
			c0.744,0,1.405,0.17,1.983,0.509c0.577,0.34,1.053,0.802,1.425,1.387s0.68,1.302,0.924,2.151c0.242,0.849,0.416,1.752,0.519,2.708
			c0.103,0.957,0.153,2.007,0.153,3.152v13.606c0,6.618-1.668,9.927-5.004,9.927C32.468,45.078,30.8,41.769,30.8,35.151z
			 M39.076,35.792v-14.89c0-4.643-1.091-6.964-3.271-6.964c-2.182,0-3.272,2.321-3.272,6.964v14.89c0,4.655,1.091,6.982,3.272,6.982
			C37.985,42.775,39.076,40.448,39.076,35.792z"/>
		<path d="M43.772,44.568V12.09h1.733v30.176h5.483v2.302H43.772z"/>
		<path d="M53.189,44.568h-1.744l3.876-32.478h2.257l3.876,32.478h-1.756l-0.98-8.455h-4.525L53.189,44.568z M54.397,34.208h4.104
			l-2.063-19.136L54.397,34.208z"/>
		<path d="M65.843,44.568L61.625,12.09h1.87l3.477,29.081l3.329-29.081h1.869l-4.059,32.478H65.843z"/>
		<path d="M73.994,44.568H72.25l3.876-32.478h2.257l3.876,32.478h-1.756l-0.98-8.455h-4.525L73.994,44.568z M75.202,34.208h4.104
			l-2.063-19.136L75.202,34.208z"/>
		<path d="M84.459,44.568V12.09h1.733v30.176h5.483v2.302H84.459z"/>
		<path d="M92.896,35.151V21.544c0-1.145,0.051-2.195,0.153-3.152c0.103-0.956,0.275-1.859,0.52-2.708
			c0.243-0.849,0.551-1.566,0.923-2.151s0.848-1.047,1.425-1.387c0.578-0.339,1.239-0.509,1.984-0.509
			c0.744,0,1.405,0.17,1.983,0.509c0.577,0.34,1.053,0.802,1.425,1.387s0.68,1.302,0.924,2.151c0.242,0.849,0.416,1.752,0.519,2.708
			c0.103,0.957,0.153,2.007,0.153,3.152v13.606c0,6.618-1.668,9.927-5.004,9.927C94.563,45.078,92.896,41.769,92.896,35.151z
			 M101.172,35.792v-14.89c0-4.643-1.091-6.964-3.271-6.964c-2.182,0-3.272,2.321-3.272,6.964v14.89
			c0,4.655,1.091,6.982,3.272,6.982C100.081,42.775,101.172,40.448,101.172,35.792z"/>
	</g>
</g>
<g>
	<path d="M29.375,64l-0.802-1.992h-4.288L23.483,64h-0.801l3.315-8.102h0.862L30.176,64H29.375z M26.423,56.64l-1.906,4.737h3.825
		L26.423,56.64z"/>
	<path d="M38.246,64v-7.154L35.295,64h-0.268l-2.964-7.154V64h-0.692v-8.102h1.033l2.757,6.681l2.745-6.681h1.044V64H38.246z"/>
	<path d="M40.668,59.956c0-2.369,1.555-4.19,3.936-4.19c2.368,0,3.936,1.822,3.936,4.19c0,2.368-1.567,4.19-3.936,4.19
		C42.223,64.146,40.668,62.324,40.668,59.956z M47.811,59.956c0-2.065-1.264-3.559-3.207-3.559c-1.968,0-3.206,1.494-3.206,3.559
		c0,2.041,1.238,3.559,3.206,3.559C46.547,63.514,47.811,61.996,47.811,59.956z"/>
	<path d="M55.006,64l-2.271-3.352h-1.786V64h-0.692v-8.102h3.024c1.397,0,2.466,0.887,2.466,2.369c0,1.47-1.045,2.283-2.247,2.332
		L55.845,64H55.006z M55.019,58.267c0-1.021-0.729-1.737-1.798-1.737h-2.271v3.486h2.271C54.29,60.016,55.019,59.288,55.019,58.267z
		"/>
	<path d="M60.624,64v-8.102h2.587c2.515,0,4.094,1.834,4.094,4.057c0,2.247-1.579,4.044-4.094,4.044H60.624z M66.576,59.956
		c0-1.895-1.215-3.425-3.365-3.425h-1.895v6.838h1.895C65.35,63.369,66.576,61.85,66.576,59.956z"/>
	<path d="M69.034,64v-8.102h5.138v0.632h-4.445v3h4.36v0.631h-4.36v3.207h4.445V64H69.034z"/>
	<path d="M75.889,64v-8.102h0.692v7.47h3.924V64H75.889z"/>
	<path d="M92.036,64v-7.154L89.085,64h-0.268l-2.964-7.154V64h-0.692v-8.102h1.032l2.758,6.681l2.745-6.681h1.044V64H92.036z"/>
	<path d="M100.63,64l-0.802-1.992H95.54L94.738,64h-0.801l3.315-8.102h0.862L101.432,64H100.63z M97.678,56.64l-1.906,4.737h3.825
		L97.678,56.64z"/>
	<path d="M107.374,64l-2.271-3.352h-1.786V64h-0.692v-8.102h3.024c1.397,0,2.466,0.887,2.466,2.369c0,1.47-1.045,2.283-2.247,2.332
		L108.213,64H107.374z M107.387,58.267c0-1.021-0.729-1.737-1.798-1.737h-2.271v3.486h2.271
		C106.658,60.016,107.387,59.288,107.387,58.267z"/>
</g>
</svg>
