<?xml version="1.0" encoding="utf-8"?>
<!-- Generator: Adobe Illustrator 16.0.0, SVG Export Plug-In . SVG Version: 6.00 Build 0)  -->
<!DOCTYPE svg PUBLIC "-//W3C//DTD SVG 1.1//EN" "http://www.w3.org/Graphics/SVG/1.1/DTD/svg11.dtd">
<svg version="1.1" id="Layer_1" xmlns="http://www.w3.org/2000/svg" xmlns:xlink="http://www.w3.org/1999/xlink" x="0px" y="0px"
	 width="90px" height="90px" viewBox="0 0 90 90" enable-background="new 0 0 90 90" xml:space="preserve">
<g>
	<g>
		<linearGradient id="SVGID_1_" gradientUnits="userSpaceOnUse" x1="4" y1="45" x2="86" y2="45">
			<stop  offset="0" style="stop-color:#FD746C"/>
			<stop  offset="1" style="stop-color:#FF9068"/>
		</linearGradient>
		<path fill="url(#SVGID_1_)" d="M85.961,68.698c0.174,1.331-0.232,2.488-1.213,3.473L73.201,83.629
			c-0.52,0.578-1.201,1.072-2.04,1.477c-0.84,0.404-1.663,0.665-2.474,0.781c-0.058,0-0.232,0.014-0.521,0.043
			c-0.29,0.028-0.666,0.044-1.128,0.044c-1.101,0-2.879-0.188-5.34-0.563c-2.458-0.378-5.467-1.305-9.027-2.779
			c-3.559-1.476-7.597-3.689-12.111-6.64c-4.513-2.951-9.316-7.003-14.411-12.154c-4.05-3.993-7.406-7.812-10.068-11.458
			c-2.663-3.646-4.805-7.019-6.423-10.113c-1.622-3.096-2.837-5.903-3.647-8.421c-0.811-2.518-1.361-4.688-1.65-6.51
			c-0.289-1.825-0.406-3.256-0.346-4.299c0.058-1.04,0.087-1.619,0.087-1.734c0.116-0.812,0.376-1.636,0.78-2.474
			c0.406-0.841,0.898-1.521,1.476-2.041L17.903,5.241c0.811-0.81,1.736-1.215,2.779-1.215c0.751,0,1.417,0.216,1.995,0.651
			c0.579,0.435,1.071,0.969,1.477,1.605l9.288,17.621c0.521,0.928,0.665,1.939,0.435,3.04c-0.231,1.1-0.722,2.024-1.476,2.777
			l-4.252,4.253c-0.118,0.116-0.218,0.304-0.305,0.563c-0.087,0.261-0.129,0.478-0.129,0.651c0.231,1.215,0.751,2.605,1.563,4.168
			c0.693,1.389,1.765,3.082,3.211,5.079c1.447,1.997,3.501,4.297,6.163,6.9c2.605,2.66,4.919,4.729,6.945,6.206
			c2.025,1.477,3.719,2.562,5.079,3.255c1.36,0.694,2.402,1.116,3.125,1.26l1.085,0.216c0.114,0,0.303-0.043,0.563-0.13
			c0.26-0.086,0.449-0.188,0.564-0.304l4.948-5.033c1.042-0.927,2.258-1.391,3.646-1.391c0.983,0,1.765,0.173,2.345,0.521h0.085
			l16.753,9.896C85.007,66.586,85.729,67.54,85.961,68.698z"/>
	</g>
</g>
</svg>
