<?xml version="1.0" encoding="utf-8"?>
<!-- Generator: Adobe Illustrator 16.0.0, SVG Export Plug-In . SVG Version: 6.00 Build 0)  -->
<!DOCTYPE svg PUBLIC "-//W3C//DTD SVG 1.1//EN" "http://www.w3.org/Graphics/SVG/1.1/DTD/svg11.dtd">
<svg version="1.1" id="Layer_1" xmlns="http://www.w3.org/2000/svg" xmlns:xlink="http://www.w3.org/1999/xlink" x="0px" y="0px"
	 width="90px" height="90px" viewBox="0 0 90 90" enable-background="new 0 0 90 90" xml:space="preserve">
<g>
	<linearGradient id="SVGID_1_" gradientUnits="userSpaceOnUse" x1="4" y1="45" x2="86" y2="45">
		<stop  offset="0" style="stop-color:#FD746C"/>
		<stop  offset="1" style="stop-color:#FF9068"/>
	</linearGradient>
	<path fill="url(#SVGID_1_)" d="M42.995,3.715C21.164,4.754,3.936,22.936,4,44.791c0.021,6.658,1.63,12.941,4.463,18.494
		L4.111,84.414c-0.235,1.141,0.795,2.145,1.931,1.875l20.705-4.906c5.316,2.648,11.292,4.182,17.616,4.277
		c22.313,0.338,40.921-17.377,41.617-39.684C86.724,22.064,66.99,2.57,42.995,3.715z M67.7,67.365
		c-6.063,6.064-14.125,9.402-22.7,9.402c-5.022,0-9.827-1.127-14.288-3.348l-2.882-1.438L15.137,74.99l2.671-12.971l-1.42-2.783
		c-2.315-4.533-3.491-9.436-3.491-14.57c0-8.576,3.341-16.637,9.404-22.699c6.008-6.01,14.202-9.404,22.7-9.404
		c8.577,0,16.637,3.34,22.7,9.404c6.063,6.063,9.402,14.123,9.404,22.699C77.103,53.164,73.708,61.355,67.7,67.365z"/>
	<linearGradient id="SVGID_3_" gradientUnits="userSpaceOnUse" x1="24.3438" y1="44.7598" x2="67.0415" y2="44.7598">
		<stop  offset="0" style="stop-color:#FD746C"/>
		<stop  offset="1" style="stop-color:#FF9068"/>
	</linearGradient>
	<path fill="url(#SVGID_3_)" d="M64.897,53.557l-7.94-2.281c-1.045-0.299-2.167-0.002-2.929,0.771l-1.944,1.98
		c-0.817,0.834-2.061,1.102-3.145,0.664c-3.755-1.521-11.657-8.547-13.675-12.063c-0.584-1.014-0.486-2.281,0.228-3.207l1.696-2.193
		c0.664-0.857,0.802-2.014,0.363-3.006l-3.341-7.557c-0.798-1.811-3.11-2.336-4.623-1.061c-2.216,1.875-4.845,4.723-5.165,7.881
		c-0.563,5.564,1.822,12.578,10.847,21c10.424,9.73,18.772,11.014,24.206,9.697c3.085-0.746,5.547-3.738,7.104-6.189
		C67.636,56.322,66.8,54.102,64.897,53.557z"/>
</g>
</svg>
